<svg width="50" height="50" viewBox="0 0 50 50" fill="none" xmlns="http://www.w3.org/2000/svg">
    <rect width="50" height="50" rx="8" fill="#F56B49" />
    <g clip-path="url(#clip0_48_208)">
        <path
            d="M32.8845 23.4176L17.1122 17.8232L24.9993 15.2503V9.47675L10 14.7978V20.8546L17.1148 23.3771L17.1249 23.3804L32.8811 28.9668L25 31.5285V37.3411L40 31.9962V25.9394L32.8852 23.4169L32.8845 23.4176Z"
            fill="#FFF7E8" />
        <path
            d="M39.9994 23.2796L34.6213 21.3721L34.6112 21.3681L31.9967 20.4412L28.1391 19.0745L27.4963 18.8462V8.59498L31.9967 7V14.888L39.9994 17.7263V23.2796Z"
            fill="#FFF7E8" />
        <path
            d="M10.0068 37.0718L18.0089 34.2341V26.3455L22.5099 27.9411V38.1917L21.8671 38.4199L18.0089 39.7867L15.395 40.7136L15.3849 40.7182L10.0068 42.625V37.0718Z"
            fill="#FFF7E8" />
    </g>
    <defs>
        <clipPath id="clip0_48_208">
            <rect width="30" height="35.625" fill="white" transform="translate(10 7)" />
        </clipPath>
    </defs>
</svg>